<?xml version="1.0" encoding="iso-8859-1"?>
<!-- Generator: Adobe Illustrator 19.0.0, SVG Export Plug-In . SVG Version: 6.00 Build 0)  -->
<svg version="1.1" id="Layer_1" xmlns="http://www.w3.org/2000/svg" xmlns:xlink="http://www.w3.org/1999/xlink" x="0px" y="0px"
	 viewBox="0 0 450 450" style="enable-background:new 0 0 450 450;" xml:space="preserve">
<g id="XMLID_202_">
	<g>
		<path d="M420,384.533c0,8.271-6.729,15-15,15c-6.961,0-12.813-4.772-14.497-11.213l52.525-78.787H240v-30h195v-30
			c0.395,0,0.615,0.039,0.617,0.04c-7.777-1.419-40.104-24.947-93.745-82.042C298.04,120.877,258.574,51.601,240,20.467v259.066h-30
			V20.467c-18.574,31.134-58.04,100.41-101.872,147.064c-53.641,57.095-85.968,80.623-93.745,82.042
			c0.002-0.001,0.223-0.04,0.617-0.04v30h195v30H6.972l52.525,78.787c-1.685,6.44-7.536,11.213-14.497,11.213
			c-8.271,0-15-6.729-15-15H0c0,24.814,20.187,45,45,45c11.517,0,22.032-4.354,30-11.495c7.968,7.142,18.483,11.495,30,11.495
			c11.517,0,22.032-4.354,30-11.495c7.968,7.142,18.483,11.495,30,11.495c11.517,0,22.032-4.354,30-11.495
			c7.968,7.142,18.483,11.495,30,11.495c11.517,0,22.032-4.354,30-11.495c7.968,7.142,18.483,11.495,30,11.495
			c11.517,0,22.032-4.354,30-11.495c7.968,7.142,18.483,11.495,30,11.495c11.517,0,22.032-4.354,30-11.495
			c7.968,7.142,18.483,11.495,30,11.495c24.813,0,45-20.186,45-45H420z"/>
	</g>
</g>
<g>
</g>
<g>
</g>
<g>
</g>
<g>
</g>
<g>
</g>
<g>
</g>
<g>
</g>
<g>
</g>
<g>
</g>
<g>
</g>
<g>
</g>
<g>
</g>
<g>
</g>
<g>
</g>
<g>
</g>
</svg>
